<mxfile host="app.diagrams.net" agent="Mozilla/5.0 (Windows NT 10.0; Win64; x64) AppleWebKit/537.36 (KHTML, like Gecko) Chrome/135.0.0.0 Safari/537.36" version="26.1.1">
  <diagram id="C5RBs43oDa-KdzZeNtuy" name="Page-1">
    <mxGraphModel dx="1251" dy="1127" grid="1" gridSize="10" guides="1" tooltips="1" connect="1" arrows="1" fold="1" page="1" pageScale="1" pageWidth="827" pageHeight="1169" math="0" shadow="0">
      <root>
        <mxCell id="WIyWlLk6GJQsqaUBKTNV-0" />
        <mxCell id="WIyWlLk6GJQsqaUBKTNV-1" parent="WIyWlLk6GJQsqaUBKTNV-0" />
        <mxCell id="0SK2hrIgDgx4VLdHtrWu-43" style="edgeStyle=orthogonalEdgeStyle;rounded=0;orthogonalLoop=1;jettySize=auto;html=1;entryX=0;entryY=0.5;entryDx=0;entryDy=0;" edge="1" parent="WIyWlLk6GJQsqaUBKTNV-1" source="0SK2hrIgDgx4VLdHtrWu-29" target="0SK2hrIgDgx4VLdHtrWu-33">
          <mxGeometry relative="1" as="geometry" />
        </mxCell>
        <mxCell id="0SK2hrIgDgx4VLdHtrWu-46" style="edgeStyle=orthogonalEdgeStyle;rounded=0;orthogonalLoop=1;jettySize=auto;html=1;exitX=1;exitY=0.75;exitDx=0;exitDy=0;" edge="1" parent="WIyWlLk6GJQsqaUBKTNV-1" source="0SK2hrIgDgx4VLdHtrWu-29">
          <mxGeometry relative="1" as="geometry">
            <mxPoint x="391" y="390" as="targetPoint" />
            <Array as="points">
              <mxPoint x="332" y="310" />
              <mxPoint x="332" y="390" />
            </Array>
          </mxGeometry>
        </mxCell>
        <mxCell id="0SK2hrIgDgx4VLdHtrWu-50" style="edgeStyle=orthogonalEdgeStyle;rounded=0;orthogonalLoop=1;jettySize=auto;html=1;exitX=0.75;exitY=1;exitDx=0;exitDy=0;entryX=0;entryY=0.5;entryDx=0;entryDy=0;" edge="1" parent="WIyWlLk6GJQsqaUBKTNV-1">
          <mxGeometry relative="1" as="geometry">
            <mxPoint x="251" y="320" as="sourcePoint" />
            <mxPoint x="563.5" y="470" as="targetPoint" />
            <Array as="points">
              <mxPoint x="261" y="320" />
              <mxPoint x="261" y="450" />
              <mxPoint x="531" y="450" />
              <mxPoint x="531" y="470" />
            </Array>
          </mxGeometry>
        </mxCell>
        <mxCell id="0SK2hrIgDgx4VLdHtrWu-29" value="Teachers" style="rounded=0;whiteSpace=wrap;html=1;fillColor=#DBCCFF;" vertex="1" parent="WIyWlLk6GJQsqaUBKTNV-1">
          <mxGeometry x="181" y="280" width="90" height="40" as="geometry" />
        </mxCell>
        <mxCell id="0SK2hrIgDgx4VLdHtrWu-44" style="edgeStyle=orthogonalEdgeStyle;rounded=0;orthogonalLoop=1;jettySize=auto;html=1;entryX=1;entryY=0.5;entryDx=0;entryDy=0;" edge="1" parent="WIyWlLk6GJQsqaUBKTNV-1" source="0SK2hrIgDgx4VLdHtrWu-30" target="0SK2hrIgDgx4VLdHtrWu-33">
          <mxGeometry relative="1" as="geometry" />
        </mxCell>
        <mxCell id="0SK2hrIgDgx4VLdHtrWu-47" style="edgeStyle=orthogonalEdgeStyle;rounded=0;orthogonalLoop=1;jettySize=auto;html=1;exitX=0;exitY=0.75;exitDx=0;exitDy=0;entryX=1;entryY=0.5;entryDx=0;entryDy=0;" edge="1" parent="WIyWlLk6GJQsqaUBKTNV-1" source="0SK2hrIgDgx4VLdHtrWu-30" target="0SK2hrIgDgx4VLdHtrWu-34">
          <mxGeometry relative="1" as="geometry">
            <mxPoint x="551" y="390" as="targetPoint" />
            <Array as="points">
              <mxPoint x="552" y="310" />
              <mxPoint x="552" y="390" />
            </Array>
          </mxGeometry>
        </mxCell>
        <mxCell id="0SK2hrIgDgx4VLdHtrWu-48" style="edgeStyle=orthogonalEdgeStyle;rounded=0;orthogonalLoop=1;jettySize=auto;html=1;exitX=0.75;exitY=1;exitDx=0;exitDy=0;entryX=0.697;entryY=0.005;entryDx=0;entryDy=0;entryPerimeter=0;" edge="1" parent="WIyWlLk6GJQsqaUBKTNV-1" source="0SK2hrIgDgx4VLdHtrWu-30" target="0SK2hrIgDgx4VLdHtrWu-36">
          <mxGeometry relative="1" as="geometry">
            <mxPoint x="678.5714285714287" y="420" as="targetPoint" />
          </mxGeometry>
        </mxCell>
        <mxCell id="0SK2hrIgDgx4VLdHtrWu-30" value="Pupils" style="rounded=0;whiteSpace=wrap;html=1;fillColor=#DBCCFF;" vertex="1" parent="WIyWlLk6GJQsqaUBKTNV-1">
          <mxGeometry x="611" y="280" width="90" height="40" as="geometry" />
        </mxCell>
        <mxCell id="0SK2hrIgDgx4VLdHtrWu-31" value="Parents" style="rounded=0;whiteSpace=wrap;html=1;fillColor=#DBCCFF;" vertex="1" parent="WIyWlLk6GJQsqaUBKTNV-1">
          <mxGeometry x="181" y="710" width="90" height="40" as="geometry" />
        </mxCell>
        <mxCell id="0SK2hrIgDgx4VLdHtrWu-60" style="edgeStyle=orthogonalEdgeStyle;rounded=0;orthogonalLoop=1;jettySize=auto;html=1;exitX=0;exitY=0.25;exitDx=0;exitDy=0;entryX=0.5;entryY=1;entryDx=0;entryDy=0;" edge="1" parent="WIyWlLk6GJQsqaUBKTNV-1" source="0SK2hrIgDgx4VLdHtrWu-32" target="0SK2hrIgDgx4VLdHtrWu-35">
          <mxGeometry relative="1" as="geometry">
            <Array as="points">
              <mxPoint x="611" y="690" />
              <mxPoint x="171" y="690" />
            </Array>
          </mxGeometry>
        </mxCell>
        <mxCell id="0SK2hrIgDgx4VLdHtrWu-32" value="School Admins" style="rounded=0;whiteSpace=wrap;html=1;fillColor=#DBCCFF;" vertex="1" parent="WIyWlLk6GJQsqaUBKTNV-1">
          <mxGeometry x="611" y="710" width="90" height="40" as="geometry" />
        </mxCell>
        <mxCell id="0SK2hrIgDgx4VLdHtrWu-33" value="&amp;nbsp;Manage Course Materials" style="ellipse;whiteSpace=wrap;html=1;" vertex="1" parent="WIyWlLk6GJQsqaUBKTNV-1">
          <mxGeometry x="394" y="270" width="100" height="60" as="geometry" />
        </mxCell>
        <mxCell id="0SK2hrIgDgx4VLdHtrWu-34" value="&amp;nbsp;Manage Assignments" style="ellipse;whiteSpace=wrap;html=1;" vertex="1" parent="WIyWlLk6GJQsqaUBKTNV-1">
          <mxGeometry x="394" y="360" width="100" height="60" as="geometry" />
        </mxCell>
        <mxCell id="0SK2hrIgDgx4VLdHtrWu-35" value="Reporting &amp;amp; Analytics" style="ellipse;whiteSpace=wrap;html=1;" vertex="1" parent="WIyWlLk6GJQsqaUBKTNV-1">
          <mxGeometry x="121" y="490" width="100" height="60" as="geometry" />
        </mxCell>
        <mxCell id="0SK2hrIgDgx4VLdHtrWu-36" value="Manage Attendance" style="ellipse;whiteSpace=wrap;html=1;" vertex="1" parent="WIyWlLk6GJQsqaUBKTNV-1">
          <mxGeometry x="561" y="440" width="100" height="60" as="geometry" />
        </mxCell>
        <mxCell id="0SK2hrIgDgx4VLdHtrWu-37" value="Manage Grades &amp;amp; Feedback" style="ellipse;whiteSpace=wrap;html=1;" vertex="1" parent="WIyWlLk6GJQsqaUBKTNV-1">
          <mxGeometry x="421" y="510" width="100" height="60" as="geometry" />
        </mxCell>
        <mxCell id="0SK2hrIgDgx4VLdHtrWu-38" value="Messaging &amp;amp; Communication" style="ellipse;whiteSpace=wrap;html=1;" vertex="1" parent="WIyWlLk6GJQsqaUBKTNV-1">
          <mxGeometry x="251" y="570" width="100" height="60" as="geometry" />
        </mxCell>
        <mxCell id="0SK2hrIgDgx4VLdHtrWu-49" style="edgeStyle=orthogonalEdgeStyle;rounded=0;orthogonalLoop=1;jettySize=auto;html=1;exitX=0.75;exitY=0;exitDx=0;exitDy=0;entryX=1;entryY=0.5;entryDx=0;entryDy=0;" edge="1" parent="WIyWlLk6GJQsqaUBKTNV-1" source="0SK2hrIgDgx4VLdHtrWu-32" target="0SK2hrIgDgx4VLdHtrWu-36">
          <mxGeometry relative="1" as="geometry">
            <Array as="points">
              <mxPoint x="681" y="710" />
              <mxPoint x="681" y="470" />
            </Array>
          </mxGeometry>
        </mxCell>
        <mxCell id="0SK2hrIgDgx4VLdHtrWu-51" style="edgeStyle=orthogonalEdgeStyle;rounded=0;orthogonalLoop=1;jettySize=auto;html=1;exitX=0;exitY=1;exitDx=0;exitDy=0;entryX=0.6;entryY=0;entryDx=0;entryDy=0;entryPerimeter=0;" edge="1" parent="WIyWlLk6GJQsqaUBKTNV-1" source="0SK2hrIgDgx4VLdHtrWu-30" target="0SK2hrIgDgx4VLdHtrWu-38">
          <mxGeometry relative="1" as="geometry">
            <Array as="points">
              <mxPoint x="581" y="320" />
              <mxPoint x="581" y="430" />
              <mxPoint x="311" y="430" />
            </Array>
          </mxGeometry>
        </mxCell>
        <mxCell id="0SK2hrIgDgx4VLdHtrWu-52" style="edgeStyle=orthogonalEdgeStyle;rounded=0;orthogonalLoop=1;jettySize=auto;html=1;exitX=0.75;exitY=0;exitDx=0;exitDy=0;entryX=0;entryY=0.5;entryDx=0;entryDy=0;" edge="1" parent="WIyWlLk6GJQsqaUBKTNV-1" source="0SK2hrIgDgx4VLdHtrWu-31" target="0SK2hrIgDgx4VLdHtrWu-38">
          <mxGeometry relative="1" as="geometry">
            <Array as="points">
              <mxPoint x="231" y="710" />
              <mxPoint x="231" y="600" />
            </Array>
          </mxGeometry>
        </mxCell>
        <mxCell id="0SK2hrIgDgx4VLdHtrWu-53" style="edgeStyle=orthogonalEdgeStyle;rounded=0;orthogonalLoop=1;jettySize=auto;html=1;exitX=0.75;exitY=1;exitDx=0;exitDy=0;entryX=0.3;entryY=0;entryDx=0;entryDy=0;entryPerimeter=0;" edge="1" parent="WIyWlLk6GJQsqaUBKTNV-1" source="0SK2hrIgDgx4VLdHtrWu-29" target="0SK2hrIgDgx4VLdHtrWu-38">
          <mxGeometry relative="1" as="geometry">
            <Array as="points">
              <mxPoint x="231" y="320" />
              <mxPoint x="231" y="400" />
              <mxPoint x="281" y="400" />
            </Array>
          </mxGeometry>
        </mxCell>
        <mxCell id="0SK2hrIgDgx4VLdHtrWu-57" style="edgeStyle=orthogonalEdgeStyle;rounded=0;orthogonalLoop=1;jettySize=auto;html=1;exitX=0.25;exitY=1;exitDx=0;exitDy=0;entryX=0;entryY=0.333;entryDx=0;entryDy=0;entryPerimeter=0;" edge="1" parent="WIyWlLk6GJQsqaUBKTNV-1" source="0SK2hrIgDgx4VLdHtrWu-29" target="0SK2hrIgDgx4VLdHtrWu-37">
          <mxGeometry relative="1" as="geometry">
            <Array as="points">
              <mxPoint x="204" y="450" />
              <mxPoint x="251" y="450" />
              <mxPoint x="251" y="530" />
            </Array>
          </mxGeometry>
        </mxCell>
        <mxCell id="0SK2hrIgDgx4VLdHtrWu-58" style="edgeStyle=orthogonalEdgeStyle;rounded=0;orthogonalLoop=1;jettySize=auto;html=1;exitX=1;exitY=0.5;exitDx=0;exitDy=0;entryX=0.311;entryY=0.957;entryDx=0;entryDy=0;entryPerimeter=0;" edge="1" parent="WIyWlLk6GJQsqaUBKTNV-1" source="0SK2hrIgDgx4VLdHtrWu-31" target="0SK2hrIgDgx4VLdHtrWu-37">
          <mxGeometry relative="1" as="geometry" />
        </mxCell>
        <mxCell id="0SK2hrIgDgx4VLdHtrWu-59" style="edgeStyle=orthogonalEdgeStyle;rounded=0;orthogonalLoop=1;jettySize=auto;html=1;exitX=1;exitY=1;exitDx=0;exitDy=0;entryX=1.004;entryY=0.588;entryDx=0;entryDy=0;entryPerimeter=0;" edge="1" parent="WIyWlLk6GJQsqaUBKTNV-1" source="0SK2hrIgDgx4VLdHtrWu-30" target="0SK2hrIgDgx4VLdHtrWu-37">
          <mxGeometry relative="1" as="geometry" />
        </mxCell>
        <mxCell id="0SK2hrIgDgx4VLdHtrWu-71" style="edgeStyle=orthogonalEdgeStyle;rounded=0;orthogonalLoop=1;jettySize=auto;html=1;exitX=1;exitY=0.25;exitDx=0;exitDy=0;" edge="1" parent="WIyWlLk6GJQsqaUBKTNV-1" source="0SK2hrIgDgx4VLdHtrWu-62">
          <mxGeometry relative="1" as="geometry">
            <mxPoint x="500.28571428571433" y="255.28571428571433" as="targetPoint" />
          </mxGeometry>
        </mxCell>
        <mxCell id="0SK2hrIgDgx4VLdHtrWu-62" value="&amp;nbsp;Materials Data" style="shape=partialRectangle;whiteSpace=wrap;html=1;left=0;right=0;fillColor=#FFF0D6;strokeColor=#CFC3AD;" vertex="1" parent="WIyWlLk6GJQsqaUBKTNV-1">
          <mxGeometry x="394" y="250" width="106" height="20" as="geometry" />
        </mxCell>
        <mxCell id="0SK2hrIgDgx4VLdHtrWu-63" value="Assignments Data" style="shape=partialRectangle;whiteSpace=wrap;html=1;left=0;right=0;fillColor=#FFF0D6;strokeColor=#CFC3AD;" vertex="1" parent="WIyWlLk6GJQsqaUBKTNV-1">
          <mxGeometry x="392" y="340" width="106" height="20" as="geometry" />
        </mxCell>
        <mxCell id="0SK2hrIgDgx4VLdHtrWu-64" value=" Attendance Data" style="shape=partialRectangle;whiteSpace=wrap;html=1;left=0;right=0;fillColor=#FFF0D6;strokeColor=#CFC3AD;" vertex="1" parent="WIyWlLk6GJQsqaUBKTNV-1">
          <mxGeometry x="561" y="500" width="100" height="20" as="geometry" />
        </mxCell>
        <mxCell id="0SK2hrIgDgx4VLdHtrWu-65" value=" Communication Log Data" style="shape=partialRectangle;whiteSpace=wrap;html=1;left=0;right=0;fillColor=#FFF0D6;strokeColor=#CFC3AD;" vertex="1" parent="WIyWlLk6GJQsqaUBKTNV-1">
          <mxGeometry x="251" y="630" width="100" height="30" as="geometry" />
        </mxCell>
        <mxCell id="0SK2hrIgDgx4VLdHtrWu-66" value="Grades Data" style="shape=partialRectangle;whiteSpace=wrap;html=1;left=0;right=0;fillColor=#FFF0D6;strokeColor=#CFC3AD;" vertex="1" parent="WIyWlLk6GJQsqaUBKTNV-1">
          <mxGeometry x="421" y="490" width="100" height="20" as="geometry" />
        </mxCell>
        <mxCell id="0SK2hrIgDgx4VLdHtrWu-67" value="Report Data" style="shape=partialRectangle;whiteSpace=wrap;html=1;left=0;right=0;fillColor=#FFF0D6;strokeColor=#CFC3AD;" vertex="1" parent="WIyWlLk6GJQsqaUBKTNV-1">
          <mxGeometry x="121" y="470" width="100" height="20" as="geometry" />
        </mxCell>
        <mxCell id="0SK2hrIgDgx4VLdHtrWu-69" style="edgeStyle=orthogonalEdgeStyle;rounded=0;orthogonalLoop=1;jettySize=auto;html=1;exitX=0;exitY=1;exitDx=0;exitDy=0;entryX=0;entryY=0.422;entryDx=0;entryDy=0;entryPerimeter=0;" edge="1" parent="WIyWlLk6GJQsqaUBKTNV-1" source="0SK2hrIgDgx4VLdHtrWu-29" target="0SK2hrIgDgx4VLdHtrWu-35">
          <mxGeometry relative="1" as="geometry">
            <Array as="points">
              <mxPoint x="111" y="320" />
              <mxPoint x="111" y="370" />
              <mxPoint x="91" y="370" />
              <mxPoint x="91" y="515" />
            </Array>
          </mxGeometry>
        </mxCell>
      </root>
    </mxGraphModel>
  </diagram>
</mxfile>
